<svg xmlns="http://www.w3.org/2000/svg" width="27.23" height="13.268" viewBox="0 0 27.23 13.268"><defs><style>.a{fill:#fff;}</style></defs><g transform="translate(0 13.268) rotate(-90)"><g transform="translate(0 21.106)"><path class="a" d="M154.05,134.243a.639.639,0,0,1-.4-.141l-6-4.852a.636.636,0,1,1,.8-.989l5.6,4.528,5.6-4.528a.636.636,0,1,1,.8.989l-6,4.852A.637.637,0,0,1,154.05,134.243Z" transform="translate(-147.416 -128.119)"/></g><g transform="translate(5.996)"><path class="a" d="M154.041,133.82a.637.637,0,0,1-.637-.637v-25.5a.637.637,0,0,1,1.274,0v25.5A.637.637,0,0,1,154.041,133.82Z" transform="translate(-153.404 -107.043)"/></g></g></svg>