<svg xmlns="http://www.w3.org/2000/svg" width="15.863" height="30.386" viewBox="0 0 15.863 30.386"><defs><style>.a{fill:#fff;fill-rule:evenodd;}</style></defs><path class="a" d="M-21.793,104.7c.943-.032,1.881-.009,2.828-.014h.384V99.8c-.5-.055-1.025-.124-1.556-.151-.965-.041-1.931-.092-2.9-.069a7.1,7.1,0,0,0-4.091,1.263,6.128,6.128,0,0,0-2.462,4.09,14.607,14.607,0,0,0-.169,2.1c-.027,1.1,0,2.2,0,3.3v.412h-4.685v5.468h4.658v13.749h5.692V116.23h4.644c.238-1.821.471-3.619.714-5.5h-1.043c-1.322,0-4.351,0-4.351,0s.014-2.713.046-3.889C-24.039,105.235-23.083,104.746-21.793,104.7Z" transform="translate(34.444 -99.57)"/></svg>