<svg xmlns="http://www.w3.org/2000/svg" width="27.787" height="27.771" viewBox="0 0 27.787 27.771"><defs><style>.a{fill:#fff;}</style></defs><path class="a" d="M1.179,55.911a7.358,7.358,0,0,0-2.25-4.743A7.7,7.7,0,0,0-6.163,49.1c-3.268-.174-11.023-.287-13.742.157a7.015,7.015,0,0,0-6.014,5.4c-.661,2.363-.527,13.259-.144,15.6A7.034,7.034,0,0,0-20.479,76.3c2.193.566,12.964.5,15.379.1A7.05,7.05,0,0,0,.987,70.85C1.623,68.422,1.4,58.1,1.179,55.911ZM-1.38,69.792A4.7,4.7,0,0,1-5.8,73.987c-2.241.248-12.25.383-14.33-.2a4.552,4.552,0,0,1-3.455-3.921,93,93,0,0,1,0-14.025,4.692,4.692,0,0,1,4.4-4.177,98.137,98.137,0,0,1,13.673.057,4.7,4.7,0,0,1,4.191,4.43A99.915,99.915,0,0,1-1.38,69.792ZM-12.486,55.7a7.115,7.115,0,0,0-7.124,7.132A7.116,7.116,0,0,0-12.5,69.949a7.12,7.12,0,0,0,7.141-7.115A7.12,7.12,0,0,0-12.486,55.7Zm-.052,11.732a4.606,4.606,0,0,1-4.556-4.626,4.6,4.6,0,0,1,4.626-4.591,4.6,4.6,0,0,1,4.587,4.626A4.6,4.6,0,0,1-12.538,67.434Zm9.117-12a1.655,1.655,0,0,1-1.671,1.658,1.654,1.654,0,0,1-1.667-1.658,1.659,1.659,0,0,1,1.684-1.675A1.658,1.658,0,0,1-3.421,55.437Z" transform="translate(26.383 -48.943)"/></svg>