<svg xmlns="http://www.w3.org/2000/svg" width="30.482" height="30.408" viewBox="0 0 30.482 30.408"><defs><style>.a{fill:#fff;}</style></defs><g transform="translate(0)"><path class="a" d="M-22.541,120.523h6.326v20.315h-6.326Zm3.163-10.093a3.664,3.664,0,0,1,3.663,3.658,3.665,3.665,0,0,1-3.663,3.663,3.666,3.666,0,0,1-3.668-3.663,3.665,3.665,0,0,1,3.668-3.658" transform="translate(23.046 -110.43)"/><path class="a" d="M-20.975,112.771h6.06v2.782h.078a6.649,6.649,0,0,1,5.982-3.283c6.393,0,7.571,4.2,7.571,9.676v11.14h-6.31v-9.874c0-2.36-.047-5.388-3.283-5.388-3.288,0-3.788,2.564-3.788,5.216v10.046h-6.31Z" transform="translate(31.766 -102.679)"/></g></svg>