<svg xmlns="http://www.w3.org/2000/svg" width="37.261" height="26.112" viewBox="0 0 37.261 26.112"><defs><style>.a{fill:#fff;fill-rule:evenodd;}</style></defs><path class="a" d="M-9.158,136.948a4.338,4.338,0,0,1-2.859-2.777c-1.237-3.407-1.606-17.657.781-20.461a4.611,4.611,0,0,1,3.114-1.655c6.423-.694,26.282-.591,28.572.233a4.494,4.494,0,0,1,2.81,2.7c1.356,3.521,1.4,16.328-.179,19.724a4.332,4.332,0,0,1-2.018,2.029C18.671,138-6,137.984-9.158,136.948Zm10.209-6.678c3.862-2.007,7.692-3.992,11.571-6-3.884-2.023-7.714-4.025-11.571-6.037Z" transform="translate(12.989 -111.595)"/></svg>